<svg xmlns="http://www.w3.org/2000/svg" viewBox="0 0 38.4 19.29"><defs><style>.cls-1{fill:#3e6c57;}.cls-2{fill:#12b32d;}</style></defs><g id="Layer_2" data-name="Layer 2"><g id="Layer_1-2" data-name="Layer 1"><path class="cls-1" d="M29.29,19.29h-26A3.26,3.26,0,0,1,0,16V3.27A3.26,3.26,0,0,1,3.27,0h26a3.31,3.31,0,0,1,2.42,1.06l5.83,6.38a3.25,3.25,0,0,1,0,4.41l-5.83,6.38A3.27,3.27,0,0,1,29.29,19.29Z"></path><path class="cls-2" d="M12.36,9.22a3,3,0,0,1-1.44-2.54,2.82,2.82,0,0,1,.39-1.45,2.89,2.89,0,0,1,1-1.06,2.82,2.82,0,0,1,2.86,0,2.79,2.79,0,0,1,1,1.06,2.91,2.91,0,0,1,.38,1.45,3,3,0,0,1-.38,1.47,2.84,2.84,0,0,1-3.9,1.07Zm2.28-1.61A1.32,1.32,0,0,0,15,6.68a1.28,1.28,0,0,0-.34-.9,1.16,1.16,0,0,0-1.7,0,1.25,1.25,0,0,0-.36.9,1.28,1.28,0,0,0,.36.92,1.15,1.15,0,0,0,1.7,0ZM12.7,15.84l0-.14L19,4.11a.34.34,0,0,1,.31-.19H21c.14,0,.21.06.21.17l0,.14L15,15.82a.31.31,0,0,1-.31.19H12.91C12.77,16,12.7,16,12.7,15.84Zm6.1-.08a2.89,2.89,0,0,1-1.05-1.06,3,3,0,0,1-.38-1.47,2.85,2.85,0,0,1,1.43-2.51,2.74,2.74,0,0,1,1.43-.39,2.78,2.78,0,0,1,1.44.39,2.88,2.88,0,0,1,1,1,2.84,2.84,0,0,1,.38,1.46,2.88,2.88,0,0,1-.38,1.47,2.83,2.83,0,0,1-1,1.06,2.78,2.78,0,0,1-1.44.39A2.74,2.74,0,0,1,18.8,15.76Zm2.28-1.6a1.32,1.32,0,0,0,.34-.93,1.29,1.29,0,0,0-.34-.91,1.13,1.13,0,0,0-.85-.37,1.15,1.15,0,0,0-.85.37,1.26,1.26,0,0,0-.36.91,1.3,1.3,0,0,0,.36.92,1.15,1.15,0,0,0,1.7,0Z"></path></g></g></svg>