<svg xmlns="http://www.w3.org/2000/svg" viewBox="0 0 33.5 38.4"><defs><style>.cls-1{fill:#3e6c57;}.cls-2{fill:#12b32d;}</style></defs><g id="Layer_2" data-name="Layer 2"><g id="Layer_1-2" data-name="Layer 1"><path class="cls-1" d="M13.63,10.15a3.68,3.68,0,0,0-3,1.48,3.59,3.59,0,0,0-.48.83,3.79,3.79,0,0,0-.27,1.4v.3h3.86v4.32H9.92v1.14h3.86v4.31H9.92v1.14h3.86v4.31H9.92V34H27.13a1.7,1.7,0,0,0,1.7-1.7V10.15Zm7.07,4H25v4.32H20.7Zm0,5.46H25v9.76H20.7Zm-5.58-5.46h4.31v4.32H15.12Zm0,5.46h4.31v4.31H15.12Zm0,5.45h4.31v4.31H15.12Z"></path><path class="cls-1" d="M28.83,31.93v.36a1.7,1.7,0,0,1-1.7,1.7H8.86v-.64h17.2A3.41,3.41,0,0,0,28.83,31.93Z"></path><path class="cls-1" d="M33.5,11.52V34.69a3.71,3.71,0,0,1-3.71,3.71H12.57A3.71,3.71,0,0,1,9,35.69H27.13a3.41,3.41,0,0,0,3.4-3.4V7.89A3.7,3.7,0,0,1,33.5,11.52Z"></path><path class="cls-2" d="M27.13,0H1.7A1.7,1.7,0,0,0,0,1.7V32.29A1.7,1.7,0,0,0,1.7,34H27.13a1.7,1.7,0,0,0,1.7-1.7V1.7A1.7,1.7,0,0,0,27.13,0ZM4,5.16H24.86V9.93H4ZM8.13,29.38H3.82V25.07H8.13Zm0-5.45H3.82V19.62H8.13Zm0-5.45H3.82V14.16H8.13Zm5.65,10.9H9.47V25.07h4.31Zm0-5.45H9.47V19.62h4.31Zm0-5.45H9.47V14.16h4.31Zm5.65,10.9H15.12V25.07h4.31Zm0-5.45H15.12V19.62h4.31Zm0-5.45H15.12V14.16h4.31ZM25,29.38H20.7V19.62H25Zm0-10.9H20.7V14.16H25Z"></path></g></g></svg>