<svg xmlns="http://www.w3.org/2000/svg" viewBox="0 0 37.4 38.4"><defs><style>.cls-1{fill:#3e6c57;}.cls-2{fill:#12b32d;}</style></defs><g id="Layer_2" data-name="Layer 2"><g id="Layer_1-2" data-name="Layer 1"><path class="cls-1" d="M9.1,7.08a.92.92,0,0,1-1-.79V.79A.92.92,0,0,1,9.1,0a.92.92,0,0,1,1,.79v5.5a.92.92,0,0,1-1,.78Z"></path><path class="cls-1" d="M27.29,7.08a.92.92,0,0,1-1-.79V.79a1,1,0,0,1,2,0v5.5a.92.92,0,0,1-1,.78Z"></path><path class="cls-1" d="M21,33.72H2.48a.83.83,0,0,1-.83-.82h0v-19a.83.83,0,0,1,.83-.82H33.9a.83.83,0,0,1,.83.82v9.72A9.14,9.14,0,0,1,36.38,25V5.69A1.65,1.65,0,0,0,34.73,4h-5v3.3a2.48,2.48,0,0,1-2.48,2.47h0a2.47,2.47,0,0,1-2.48-2.47V4H11.58v3.3a2.49,2.49,0,0,1-5,0h0V4h-5A1.65,1.65,0,0,0,0,5.69v28a1.65,1.65,0,0,0,1.65,1.65h20A9,9,0,0,1,21,33.72Z"></path><path class="cls-2" d="M29,26.61a.85.85,0,0,1,1.69,0h0V30H34a.84.84,0,1,1,0,1.68H29.81a.84.84,0,0,1-.84-.84h0Zm.85,11.79a7.58,7.58,0,0,0,0-15.16h0a7.58,7.58,0,0,0,0,15.16Z"></path></g></g></svg>