<svg xmlns="http://www.w3.org/2000/svg" viewBox="0 0 38.16 27.95"><defs><style>.cls-1{fill:#12b32d;}.cls-2{fill:#2a5b37;}</style></defs><g id="Layer_2" data-name="Layer 2"><g id="Layer_1-2" data-name="Layer 1"><rect class="cls-1" x="8.96" y="25.08" width="14.33" height="2.87" rx="0.03"></rect><rect class="cls-1" x="14.69" y="21.5" width="2.87" height="5.73"></rect><path class="cls-2" d="M32.25,6.45V19.1a2.41,2.41,0,0,1-2.4,2.4H27.41V8.85a2.4,2.4,0,0,1,2.4-2.4Z"></path><path class="cls-2" d="M38.16,8.85v16.7a2.41,2.41,0,0,1-2.4,2.4H29.81a2.41,2.41,0,0,1-2.4-2.4V23.1h2.44a4,4,0,0,0,4-4V6.45h1.91A2.4,2.4,0,0,1,38.16,8.85Z"></path><rect class="cls-1" width="32.25" height="21.5" rx="2.4"></rect></g></g></svg>