<svg xmlns="http://www.w3.org/2000/svg" viewBox="0 0 38.4 33.72"><defs><style>.cls-1{fill:#3e6c57;}.cls-2{fill:#12b32d;}</style></defs><g id="Layer_2" data-name="Layer 2"><g id="Layer_1-2" data-name="Layer 1"><path class="cls-1" d="M36.25,23.89,29.8,21.47a.85.85,0,0,1-.53-.67l-.33-2.39a7.67,7.67,0,0,0,3.75-6.61v-5a4.48,4.48,0,0,0-3.86-4.48L28.12.84A1.5,1.5,0,0,0,26.29.08l-4.4,1.63a6.14,6.14,0,0,0-3.16,2.93A9.74,9.74,0,0,1,22.08,12v1.46a14.14,14.14,0,0,0,2,6.18,2.59,2.59,0,0,1,.33,2,2.52,2.52,0,0,1-1.28,1.62,5.68,5.68,0,0,1-.81.32l1.13.35A5,5,0,0,1,27,28.86v4a2.45,2.45,0,0,1-.15.85H37.58a.84.84,0,0,0,.82-.85V27.06A3.37,3.37,0,0,0,36.25,23.89Z"></path><path class="cls-2" d="M24.44,33.72H.84A.86.86,0,0,1,0,32.86V28.78A3.39,3.39,0,0,1,2.4,25.5L8,23.79a.87.87,0,0,0,.59-.7l.13-1A10,10,0,0,1,3,21.64a.87.87,0,0,1-.44-.55.85.85,0,0,1,.12-.69,15.67,15.67,0,0,0,2.39-7.23V11.45a7.7,7.7,0,0,1,2.4-5.62,7.51,7.51,0,0,1,5.69-2.06,7.8,7.8,0,0,1,7.08,7.92v1.48a15.67,15.67,0,0,0,2.39,7.23.88.88,0,0,1,.11.69.84.84,0,0,1-.44.55,9.91,9.91,0,0,1-5.73.49l.14,1a.84.84,0,0,0,.59.7l5.59,1.71a3.41,3.41,0,0,1,2.41,3.28v4.08a.86.86,0,0,1-.85.86Z"></path></g></g></svg>